# xmcd
#
# Track frame offsets: 
#        150
#        22985
#        43666
#        64266
#        78014
#        92856
#        119010
#        140265
#        157943
#        177723
#        198811
#
# Disc length: 2995 seconds
#
# Revision: 0
# Processed by: cddbd v1.5.2PL0 Copyright (c) Steve Scherf et al.
# Submitted via: ExactAudioCopyFreeDBPlugin 1.0
#
DISCID=8d0bb10b
DTITLE=My Blue Van - As Colours Change
DYEAR=2013
DGENRE=Blues
TTITLE0=nothern light
TTITLE1=let the monkey free
TTITLE2=stranger
TTITLE3=spark the fire
TTITLE4=lazy afternoon
TTITLE5=what happened to me
TTITLE6=as colours change
TTITLE7=father
TTITLE8=your melody
TTITLE9=please close your eyes
TTITLE10=bumpy road
EXTD=
EXTT0=
EXTT1=
EXTT2=
EXTT3=
EXTT4=
EXTT5=
EXTT6=
EXTT7=
EXTT8=
EXTT9=
EXTT10=
PLAYORDER=
